<?xml version="1.0" encoding="utf-8"?>
<!-- Generator: Adobe Illustrator 22.0.1, SVG Export Plug-In . SVG Version: 6.00 Build 0)  -->
<svg version="1.1" xmlns="http://www.w3.org/2000/svg" xmlns:xlink="http://www.w3.org/1999/xlink" x="0px" y="0px"
	 viewBox="0 0 750 500" style="enable-background:new 0 0 750 500;" xml:space="preserve">
<style type="text/css">
	.st0{display:none;}
	.st1{display:inline;}
	.st2{fill:#EBEBEB;}
	.st3{fill:#E0E0E0;}
	.st4{fill:#FAFAFA;}
	.st5{fill:#F5F5F5;}
	.st6{display:inline;fill:#E0E0E0;}
	.st7{fill:#FFF2BB;}
	.st8{fill:#193293;}
	.st9{opacity:0.3;}
	.st10{fill:#00B8B8;}
	.st11{fill:#455A64;}
	.st12{fill:#263238;}
	.st13{fill:#3C4768;}
	.st14{fill:#FFB647;}
	.st15{opacity:0.5;fill:#FFFFFF;}
	.st16{fill:#2B3F47;}
	.st17{fill:#213882;}
	.st18{fill:#E8505B;}
	.st19{opacity:0.6;}
	.st20{fill:#EB996E;}
	.st21{fill:#FFBE9D;}
	.st22{fill:#1F3477;}
	.st23{opacity:0.4;}
	.st24{opacity:0.2;}
</style>
<g id="Background_Complete" class="st0">
	<g class="st1">
		<g>
			<rect x="61.1" y="318" class="st2" width="131.3" height="101.3"/>
			<g>
				<path class="st3" d="M159.6,418.5c-0.1,0-0.3-22.6-0.3-50.4c0-27.9,0.1-50.4,0.3-50.4s0.3,22.6,0.3,50.4
					C159.8,396,159.7,418.5,159.6,418.5z"/>
			</g>
			<rect x="171.3" y="396.2" class="st4" width="10.1" height="11.4"/>
			<rect x="101.2" y="318.2" class="st3" width="14.9" height="21.6"/>
			<rect x="101.2" y="397.3" class="st3" width="14.9" height="21.6"/>
		</g>
	</g>
	<g class="st1">
		<g>
			<rect x="81.7" y="216.9" class="st2" width="131.3" height="101.3"/>
			<g>
				<path class="st3" d="M180.1,317.5c-0.1,0-0.3-22.6-0.3-50.4c0-27.9,0.1-50.4,0.3-50.4s0.3,22.6,0.3,50.4
					C180.4,294.9,180.2,317.5,180.1,317.5z"/>
			</g>
			<rect x="191.8" y="295.1" class="st4" width="10.1" height="11.4"/>
			<rect x="121.7" y="217.2" class="st3" width="14.9" height="21.6"/>
			<rect x="121.7" y="296.3" class="st3" width="14.9" height="21.6"/>
		</g>
	</g>
	<g class="st1">
		<g>
			<rect x="98.4" y="135.7" class="st5" width="105.6" height="81.4"/>
			<g>
				<path class="st3" d="M177.5,216.6c-0.1,0-0.2-18.2-0.2-40.5c0-22.4,0.1-40.5,0.2-40.5s0.2,18.2,0.2,40.5
					C177.7,198.4,177.6,216.6,177.5,216.6z"/>
			</g>
			<rect x="186.9" y="198.6" class="st4" width="8.1" height="9.2"/>
			<rect x="130.6" y="135.9" class="st3" width="12" height="17.4"/>
			<rect x="130.6" y="199.6" class="st3" width="12" height="17.4"/>
		</g>
	</g>
	<g class="st1">
		<g>
			<rect x="576.2" y="192.3" class="st5" width="99.2" height="76.5"/>
			<g>
				<path class="st3" d="M650.5,268.2c-0.1,0-0.2-17.1-0.2-38.1c0-21,0.1-38.1,0.2-38.1c0.1,0,0.2,17,0.2,38.1
					C650.7,251.2,650.6,268.2,650.5,268.2z"/>
			</g>
			<rect x="659.3" y="251.4" class="st4" width="7.6" height="8.6"/>
			<rect x="606.4" y="192.5" class="st3" width="11.3" height="16.3"/>
			<rect x="606.4" y="252.2" class="st3" width="11.3" height="16.3"/>
		</g>
	</g>
	<g class="st1">
		<g>
			<rect x="594.3" y="356.7" class="st2" width="114.3" height="88.2"/>
			<g>
				<path class="st3" d="M680,444.3c-0.1,0-0.2-19.7-0.2-43.9c0-24.2,0.1-43.9,0.2-43.9c0.1,0,0.2,19.7,0.2,43.9
					C680.2,424.6,680.1,444.3,680,444.3z"/>
			</g>
			<rect x="690.1" y="424.8" class="st4" width="8.8" height="9.9"/>
			<rect x="629.2" y="357" class="st3" width="13" height="18.8"/>
			<rect x="629.2" y="425.8" class="st3" width="13" height="18.8"/>
		</g>
	</g>
	<g class="st1">
		<g>
			<rect x="578.5" y="268.8" class="st2" width="114.3" height="88.2"/>
			<g>
				<path class="st3" d="M664.2,356.3c-0.1,0-0.2-19.7-0.2-43.9c0-24.2,0.1-43.9,0.2-43.9c0.1,0,0.2,19.7,0.2,43.9
					C664.4,336.7,664.3,356.3,664.2,356.3z"/>
			</g>
			<rect x="674.4" y="336.9" class="st4" width="8.8" height="9.9"/>
			<rect x="613.4" y="269" class="st3" width="13" height="18.8"/>
			<rect x="613.4" y="337.9" class="st3" width="13" height="18.8"/>
		</g>
	</g>
	<g class="st1">
		<g>
			<rect x="382.8" y="193.5" class="st5" width="99.2" height="76.5"/>
			<g>
				<path class="st3" d="M457.1,269.5c-0.1,0-0.2-17.1-0.2-38.1c0-21,0.1-38.1,0.2-38.1s0.2,17,0.2,38.1
					C457.3,252.4,457.2,269.5,457.1,269.5z"/>
			</g>
			<rect x="466" y="252.6" class="st4" width="7.6" height="8.6"/>
			<rect x="413" y="193.7" class="st3" width="11.3" height="16.3"/>
			<rect x="413" y="253.5" class="st3" width="11.3" height="16.3"/>
		</g>
	</g>
	<g class="st1">
		<g>
			<rect x="391.6" y="117.2" class="st2" width="99.2" height="76.5"/>
			<g>
				<path class="st3" d="M465.9,193.2c-0.1,0-0.2-17.1-0.2-38.1c0-21,0.1-38.1,0.2-38.1c0.1,0,0.2,17,0.2,38.1
					C466.1,176.1,466,193.2,465.9,193.2z"/>
			</g>
			<rect x="474.8" y="176.3" class="st4" width="7.6" height="8.6"/>
			<rect x="421.8" y="117.4" class="st3" width="11.3" height="16.3"/>
			<rect x="421.8" y="177.1" class="st3" width="11.3" height="16.3"/>
		</g>
	</g>
	<g class="st1">
		<g>
			<rect x="416.1" y="64.1" class="st2" width="71" height="54.7"/>
			<g>
				<path class="st3" d="M469.3,118.5c-0.1,0-0.1-12.2-0.1-27.3c0-15.1,0.1-27.3,0.1-27.3s0.1,12.2,0.1,27.3
					C469.4,106.3,469.4,118.5,469.3,118.5z"/>
			</g>
			<rect x="475.6" y="106.4" class="st4" width="5.4" height="6.2"/>
			<rect x="437.7" y="64.2" class="st3" width="8.1" height="11.7"/>
			<rect x="437.7" y="107" class="st3" width="8.1" height="11.7"/>
		</g>
	</g>
	<g class="st1">
		<g>
			<rect x="400.9" y="358" class="st2" width="114.3" height="88.2"/>
			<g>
				<path class="st3" d="M486.6,445.5c-0.1,0-0.2-19.7-0.2-43.9c0-24.2,0.1-43.9,0.2-43.9c0.1,0,0.2,19.7,0.2,43.9
					C486.8,425.9,486.7,445.5,486.6,445.5z"/>
			</g>
			<rect x="496.8" y="426.1" class="st4" width="8.8" height="9.9"/>
			<rect x="435.8" y="358.2" class="st3" width="13" height="18.8"/>
			<rect x="435.8" y="427.1" class="st3" width="13" height="18.8"/>
		</g>
	</g>
	<g class="st1">
		<g>
			<rect x="385.1" y="270" class="st2" width="114.3" height="88.2"/>
			<g>
				<path class="st3" d="M470.8,357.6c-0.1,0-0.2-19.7-0.2-43.9c0-24.2,0.1-43.9,0.2-43.9c0.1,0,0.2,19.7,0.2,43.9
					C471,337.9,470.9,357.6,470.8,357.6z"/>
			</g>
			<rect x="481" y="338.1" class="st4" width="8.8" height="9.9"/>
			<rect x="420" y="270.2" class="st3" width="13" height="18.8"/>
			<rect x="420" y="339.1" class="st3" width="13" height="18.8"/>
		</g>
	</g>
	<path class="st6" d="M250.8,428.7v-9.4H58.3c-1.4,0-2.6,1.2-2.6,2.6v4.3c0,1.4,1.2,2.6,2.6,2.6h5.4v4.3c0,1.4-1.1,2.5-2.5,2.5h-2.9
		c-1.4,0-2.5,1.1-2.5,2.5v4.3c0,1.4,1.1,2.5,2.5,2.5h192.5v-9.4h-44.9v-6.8H250.8z M109.8,428.7h11.5v6.8h-11.5V428.7z M102.1,435.5
		H90.6v-6.8h11.5V435.5z M129,428.7h11.5v6.8H129V428.7z M148.3,428.7h11.5v6.8h-11.5V428.7z M167.5,428.7H179v6.8h-11.5V428.7z
		 M71.4,428.7h11.5v6.8H71.4V428.7z M198.2,435.5h-11.5v-6.8h11.5V435.5z"/>
</g>
<g id="Background_Simple">
	<path class="st7" d="M671.7,133.8l-0.3-0.6c-23-52.4-73.9-87.5-131.1-89.1c-2-0.1-4-0.1-6,0c-47.9,0.6-93.9,25-117.9,62.4
		c-14.1,22-21.8,48.9-43.8,64.5c-28.7,20.2-70,13.6-106,6.1c-36-7.5-83.1-14.9-111.6,5.4c-17.9,12.7-42.5,36.6-48.1,65.2
		c-11.8,60,10.8,121.2,63.2,142.3c55.7,22.4,150.2,41.7,211.1,41.6c85.2-0.2,172.9-17.4,234.8-68.8
		C672.2,316,697.1,209.3,671.7,133.8z"/>
</g>
<g id="Fork-Lift">
	<g>
		<g>
			<g>
				<rect x="140.1" y="232.5" class="st8" width="104.2" height="80.4"/>
				<rect x="138.3" y="231.9" class="st9" width="104.2" height="80.4"/>
				<g>
					<path class="st10" d="M218.2,312.3c-0.1,0-0.2-17.9-0.2-40c0-22.1,0.1-40,0.2-40c0.1,0,0.2,17.9,0.2,40
						C218.4,294.4,218.3,312.3,218.2,312.3z"/>
				</g>
				<rect x="227.5" y="294.6" class="st5" width="8" height="9"/>
				<rect x="171.9" y="232.7" class="st11" width="11.8" height="17.1"/>
				<rect x="171.9" y="295.5" class="st11" width="11.8" height="17.1"/>
			</g>
			<g>
				<path class="st12" d="M243.4,232.5c0,0-0.1,0-0.3,0c-0.2,0-0.5,0-0.8,0c-0.7,0-1.7,0-3,0c-2.6,0-6.4,0-11.1,0.1
					c-9.4,0-22.3,0-36.5,0c-14.3,0-27.2,0-36.5,0c-4.7,0-8.4,0-11.1-0.1c-1.3,0-2.3,0-3,0c-0.3,0-0.6,0-0.8,0c-0.2,0-0.3,0-0.3,0
					s0.1,0,0.3,0c0.2,0,0.5,0,0.8,0c0.7,0,1.7,0,3,0c2.6,0,6.4,0,11.1-0.1c9.4,0,22.3,0,36.5-0.1c14.2,0,27.2,0,36.5,0.1
					c4.7,0,8.4,0,11.1,0.1c1.3,0,2.3,0,3,0c0.3,0,0.6,0,0.8,0C243.3,232.5,243.4,232.5,243.4,232.5z"/>
			</g>
		</g>
		<g>
			<g>
				<rect x="226.9" y="232.4" class="st10" width="104.2" height="80.4"/>
				<g>
					<path class="st13" d="M304.9,312.2c-0.1,0-0.2-17.9-0.2-40c0-22.1,0.1-40,0.2-40c0.1,0,0.2,17.9,0.2,40
						C305.1,294.3,305,312.2,304.9,312.2z"/>
				</g>
				<rect x="314.2" y="294.5" class="st14" width="8" height="9"/>
				<rect x="258.6" y="232.6" class="st15" width="11.8" height="17.1"/>
				<rect x="258.6" y="295.4" class="st15" width="11.8" height="17.1"/>
			</g>
			<g>
				<path class="st12" d="M330.1,232.4c0,0-0.1,0-0.3,0c-0.2,0-0.5,0-0.8,0c-0.7,0-1.7,0-3,0c-2.6,0-6.4,0-11.1,0.1
					c-9.4,0-22.3,0-36.5,0c-14.3,0-27.2,0-36.5,0c-4.7,0-8.4,0-11.1-0.1c-1.3,0-2.3,0-3,0c-0.3,0-0.6,0-0.8,0c-0.2,0-0.3,0-0.3,0
					s0.1,0,0.3,0c0.2,0,0.5,0,0.8,0c0.7,0,1.7,0,3,0c2.6,0,6.4,0,11.1-0.1c9.4,0,22.3,0,36.5,0c14.2,0,27.2,0,36.5,0.1
					c4.7,0,8.4,0,11.1,0.1c1.3,0,2.3,0,3,0c0.3,0,0.6,0,0.8,0C330,232.4,330.1,232.4,330.1,232.4z"/>
			</g>
		</g>
		<g>
			<g>
				<rect x="229.9" y="151.7" class="st10" width="104.2" height="80.4"/>
				<g>
					<path class="st13" d="M310.8,231.8c-0.1,0-0.2-17.9-0.2-40c0-22.1,0.1-40,0.2-40c0.1,0,0.2,17.9,0.2,40
						C311,213.9,310.9,231.8,310.8,231.8z"/>
				</g>
				<rect x="320.1" y="214.1" class="st14" width="8" height="9"/>
				<rect x="264.5" y="152.3" class="st13" width="11.8" height="17.1"/>
				<rect x="264.5" y="215" class="st13" width="11.8" height="17.1"/>
			</g>
			<g>
				<path class="st12" d="M336,152c0,0-0.1,0-0.3,0c-0.2,0-0.5,0-0.8,0c-0.7,0-1.7,0-3,0c-2.6,0-6.4,0-11.1,0.1
					c-9.4,0-22.3,0-36.5,0c-14.3,0-27.2,0-36.5,0c-4.7,0-8.4,0-11.1-0.1c-1.3,0-2.3,0-3,0c-0.3,0-0.6,0-0.8,0c-0.2,0-0.3,0-0.3,0
					s0.1,0,0.3,0c0.2,0,0.5,0,0.8,0c0.7,0,1.7,0,3,0c2.6,0,6.4,0,11.1-0.1c9.4,0,22.3,0,36.5,0c14.2,0,27.2,0,36.5,0
					c4.7,0,8.4,0,11.1,0.1c1.3,0,2.3,0,3,0c0.3,0,0.6,0,0.8,0C335.9,152,336,152,336,152z"/>
			</g>
		</g>
		<path class="st11" d="M325.8,402.3v-9.4H133.3c-1.4,0-2.6,1.2-2.6,2.6v4.3c0,1.4,1.2,2.6,2.6,2.6h5.4v4.3c0,1.4-1.1,2.5-2.5,2.5
			h-2.9c-1.4,0-2.5,1.1-2.5,2.5v4.3c0,1.4,1.1,2.5,2.5,2.5h192.5v-9.4h-44.9v-6.8H325.8z M184.8,402.3h11.5v6.8h-11.5V402.3z
			 M177.1,409.1h-11.5v-6.8h11.5V409.1z M204,402.3h11.5v6.8H204V402.3z M223.2,402.3h11.5v6.8h-11.5V402.3z M242.4,402.3H254v6.8
			h-11.5V402.3z M146.3,402.3h11.5v6.8h-11.5V402.3z M273.2,409.1h-11.5v-6.8h11.5V409.1z"/>
		<g>
			<path class="st16" d="M480.9,240.2c1.3-1.4,1.3-3.5-0.1-4.8l-32.5-30.7c-1.4-1.3-3.4-1.3-4.8,0l0,0c-1.4,1.3-1.5,3.5-0.1,4.9
				l13,13.6l-6.7,6.5l-3.5-2.8l-24.5,28l-13.1-12.6l-15.8,46.4l3.1,63h36.3l-2.5-74.9l24.3-34.7l0.2-8.3l7-7.2l15.1,13.5
				C477.6,241.6,479.6,241.5,480.9,240.2L480.9,240.2z"/>
			<g>
				<path class="st12" d="M383,363.5c-0.1,0-0.3-57.5-0.3-128.4c0-70.9,0.1-128.4,0.3-128.4s0.3,57.5,0.3,128.4
					C383.2,306.1,383.1,363.5,383,363.5z"/>
			</g>
			<path class="st11" d="M464.3,347.4l22.1-61.3l-8.3-3.4v-11.9l60.4-0.9c2.9-0.1,5.4-2.3,5.7-5.2l8.9-78.8c0.4-3.7,3.5-6.4,7.2-6.4
				l0,0c4.1,0,7.4,3.4,7.2,7.5l-3.3,81.2l31.5,0.2l1.1,14.8l-93.2,3.6l-24.3,59.7L464.3,347.4z"/>
			<path class="st16" d="M478.1,345.8l-78.5,0.6v5.2l32.5-0.4l51.8-0.4l125.5-17.7L595.3,279h-85c-3.1,0-5.9,1.4-7.5,3.8
				L478.1,345.8z"/>
			<path class="st11" d="M440.5,119.4l-57,181.9l0.4,50.6H402v-13.1v-37.2l46.7-181.8l126.6-0.7l24.2,189.3h14.3l-29.5-188
				c-1-5.1-5.4-8.8-10.6-8.8H450.8C446.1,111.7,441.9,114.8,440.5,119.4z"/>
			<path class="st17" d="M373.2,410.4v-48.6l10.6-9.9l100-1.3l18-14.6c3.4-2.7,7.5-4.3,11.8-4.6l19.3-1.1c0,0,8.6-6,17-11.9
				c10.6-7.5,23.2-11.5,36.2-11.5h55.4c4.2,0,7.6,3.4,7.6,7.6v95.8H373.2z"/>
			<rect x="372.3" y="394.7" class="st12" width="276.9" height="16"/>
			<g>
				<g>
					<g>
						<g>
							<g>
								<g>
									<g>
										<path class="st12" d="M386.6,410.2c-0.3,18.9,14.8,34.5,33.7,34.7c18.9,0.3,34.5-14.8,34.7-33.7
											c0.3-18.9-14.8-34.5-33.7-34.7C402.4,376.2,386.9,391.3,386.6,410.2z"/>
									</g>
								</g>
							</g>
						</g>
					</g>
				</g>
				<g>
					<g>
						<g>
							<g>
								<g>
									<g>
										<path class="st12" d="M386.6,410.1C386.6,410.1,386.6,410.1,386.6,410.1c-0.3,19,14.8,34.5,33.7,34.8
											c18.9,0.3,34.5-14.8,34.7-33.7c0,0,0-0.1,0-0.1L386.6,410.1z"/>
									</g>
								</g>
							</g>
						</g>
					</g>
				</g>
				<g>
					<g>
						<g>
							<g>
								<g>
									<g>
										<path class="st4" d="M396.8,410.3c-0.2,13.3,10.4,24.2,23.7,24.4c13.3,0.2,24.2-10.4,24.4-23.7
											c0.2-13.3-10.4-24.2-23.7-24.4C407.9,386.4,397,397,396.8,410.3z"/>
									</g>
								</g>
							</g>
						</g>
					</g>
				</g>
				<g>
					<g>
						<g>
							<g>
								<g>
									<g>
										<path class="st3" d="M421.2,386.6c-13.3-0.2-24.2,10.4-24.4,23.7l48.1,0.7C445,397.7,434.4,386.8,421.2,386.6z"/>
									</g>
								</g>
							</g>
						</g>
					</g>
				</g>
				<g>
					<g>
						<g>
							<g>
								<g>
									<g>
										<path class="st12" d="M406.2,410.5c-0.1,8.1,6.3,14.7,14.4,14.9c8.1,0.1,14.7-6.3,14.9-14.4c0.1-8.1-6.3-14.7-14.4-14.9
											C412.9,395.9,406.3,402.4,406.2,410.5z"/>
									</g>
								</g>
							</g>
						</g>
					</g>
				</g>
			</g>
			<g>
				<g>
					<g>
						<g>
							<g>
								<g>
									<g>
										<path class="st12" d="M554.1,410.2c-0.3,18.9,14.8,34.5,33.7,34.7c18.9,0.3,34.5-14.8,34.7-33.7
											c0.3-18.9-14.8-34.5-33.7-34.7C570,376.2,554.4,391.3,554.1,410.2z"/>
									</g>
								</g>
							</g>
						</g>
					</g>
				</g>
				<g>
					<g>
						<g>
							<g>
								<g>
									<g>
										<path class="st12" d="M554.1,410.1C554.1,410.1,554.1,410.1,554.1,410.1c-0.3,19,14.8,34.5,33.7,34.8
											c18.9,0.3,34.5-14.8,34.7-33.7c0,0,0-0.1,0-0.1L554.1,410.1z"/>
									</g>
								</g>
							</g>
						</g>
					</g>
				</g>
				<g>
					<g>
						<g>
							<g>
								<g>
									<g>
										<path class="st4" d="M564.3,410.3c-0.2,13.3,10.4,24.2,23.7,24.4c13.3,0.2,24.2-10.4,24.4-23.7
											c0.2-13.3-10.4-24.2-23.7-24.4C575.4,386.4,564.5,397,564.3,410.3z"/>
									</g>
								</g>
							</g>
						</g>
					</g>
				</g>
				<g>
					<g>
						<g>
							<g>
								<g>
									<g>
										<path class="st3" d="M588.7,386.6c-13.3-0.2-24.2,10.4-24.4,23.7l48.1,0.7C612.6,397.7,602,386.8,588.7,386.6z"/>
									</g>
								</g>
							</g>
						</g>
					</g>
				</g>
				<g>
					<g>
						<g>
							<g>
								<g>
									<g>
										<path class="st12" d="M573.7,410.5c-0.1,8.1,6.3,14.7,14.4,14.9c8.1,0.1,14.7-6.3,14.9-14.4c0.1-8.1-6.3-14.7-14.4-14.9
											C580.5,395.9,573.8,402.4,573.7,410.5z"/>
									</g>
								</g>
							</g>
						</g>
					</g>
				</g>
			</g>
			<g>
				<path class="st10" d="M632.9,386.3c0,0-0.1-0.1-0.2-0.2c-0.1-0.2-0.3-0.4-0.4-0.7c-0.2-0.3-0.4-0.7-0.7-1.2
					c-0.3-0.5-0.6-1-1-1.6c-1.5-2.4-4-5.6-7.7-9c-0.9-0.9-2-1.7-3-2.6c-1.1-0.9-2.3-1.7-3.5-2.5c-1.3-0.7-2.5-1.6-3.9-2.3
					c-0.7-0.4-1.4-0.8-2.1-1.1c-0.7-0.3-1.5-0.7-2.2-1c-3.1-1.2-6.4-2.4-9.9-3c-3.5-0.7-7.3-1-11.1-0.8c-3.8,0.2-7.5,0.9-11,1.9
					c-3.5,1-6.7,2.4-9.6,4c-0.7,0.4-1.4,0.8-2.1,1.2c-0.7,0.4-1.3,0.9-2,1.3c-1.3,0.8-2.5,1.8-3.7,2.7c-1.1,1-2.2,1.9-3.2,2.8
					c-1,1-1.9,1.9-2.7,2.8c-3.3,3.7-5.5,7.2-6.8,9.7c-0.4,0.6-0.6,1.2-0.8,1.7c-0.2,0.5-0.4,0.9-0.6,1.2c-0.2,0.3-0.3,0.6-0.4,0.8
					c-0.1,0.2-0.1,0.3-0.1,0.3c0,0,0-0.1,0.1-0.3c0.1-0.2,0.2-0.5,0.3-0.8c0.2-0.4,0.3-0.8,0.5-1.3c0.2-0.5,0.5-1.1,0.8-1.7
					c1.2-2.5,3.4-6,6.7-9.9c0.8-1,1.8-1.9,2.7-2.9c1-1,2.1-1.9,3.2-2.9c1.2-0.9,2.4-1.9,3.7-2.7c0.7-0.4,1.3-0.9,2-1.3
					c0.7-0.4,1.4-0.8,2.2-1.2c3-1.6,6.2-3,9.7-4c3.5-1,7.2-1.7,11.1-1.9c3.9-0.2,7.6,0.2,11.2,0.9c3.6,0.6,6.9,1.8,10,3.1
					c0.8,0.3,1.5,0.7,2.3,1c0.7,0.4,1.4,0.8,2.1,1.1c1.4,0.7,2.7,1.6,4,2.4c1.2,0.9,2.4,1.7,3.5,2.5c1,0.9,2.1,1.7,3,2.6
					c3.7,3.5,6.2,6.8,7.6,9.2c0.4,0.6,0.7,1.1,1,1.6c0.3,0.5,0.5,0.9,0.7,1.2c0.2,0.3,0.3,0.6,0.4,0.7
					C632.9,386.2,632.9,386.3,632.9,386.3z"/>
			</g>
			<g>
				<path class="st10" d="M465.5,392.6c0,0-0.1-0.1-0.1-0.3c-0.1-0.2-0.2-0.5-0.3-0.8c-0.2-0.4-0.3-0.8-0.5-1.3
					c-0.2-0.5-0.5-1.1-0.8-1.8c-1.2-2.7-3.2-6.5-6.5-10.6c-3.2-4.1-7.7-8.7-13.9-11.9c-3.1-1.6-6.6-2.7-10.3-3.4
					c-3.7-0.8-7.6-1.1-11.6-1.1c-4,0.1-7.9,0.6-11.6,1.5c-3.7,0.9-7.1,2.3-10.1,4c-6.1,3.3-11,7.4-14.4,11.4
					c-3.4,4-5.6,7.7-7.1,10.3c-0.7,1.3-1.2,2.3-1.6,3c-0.2,0.3-0.3,0.6-0.4,0.8c-0.1,0.2-0.1,0.3-0.2,0.3s0-0.1,0.1-0.3
					c0.1-0.2,0.2-0.5,0.4-0.8c0.3-0.7,0.8-1.8,1.5-3.1c1.4-2.6,3.5-6.4,7-10.4c3.4-4,8.3-8.3,14.4-11.6c3.1-1.7,6.5-3.1,10.2-4
					c3.7-0.9,7.7-1.4,11.7-1.5c4-0.1,8,0.3,11.7,1.1c3.7,0.8,7.3,1.9,10.4,3.5c6.3,3.2,10.8,7.9,14,12.1c3.2,4.2,5.2,8.1,6.4,10.8
					c0.3,0.7,0.5,1.3,0.8,1.8c0.2,0.5,0.4,1,0.5,1.4c0.1,0.3,0.2,0.6,0.3,0.8C465.5,392.5,465.5,392.6,465.5,392.6z"/>
			</g>
			<rect x="221.4" y="392.9" class="st12" width="151.8" height="17.8"/>
			<path class="st11" d="M369.1,400.4c0,2.4-2,4.4-4.4,4.4c-2.4,0-4.4-2-4.4-4.4c0-2.4,2-4.4,4.4-4.4
				C367.1,396,369.1,398,369.1,400.4z"/>
			<rect x="358.5" y="110.3" class="st11" width="12.7" height="251.7"/>
			<g>
				<path class="st10" d="M551.4,376.3c0,0.1-21.4,0.3-47.7,0.3c-26.3,0-47.7-0.1-47.7-0.3s21.4-0.3,47.7-0.3
					C530,376.1,551.4,376.2,551.4,376.3z"/>
			</g>
			<g>
				<path class="st10" d="M531.9,372.6c-0.1,0-0.3-9.3-0.3-20.7c0-11.5,0.1-20.7,0.3-20.7s0.3,9.3,0.3,20.7
					C532.2,363.3,532.1,372.6,531.9,372.6z"/>
			</g>
			<rect x="357.1" y="104.5" class="st12" width="25.9" height="11.5"/>
			<rect x="356.5" y="359.9" class="st12" width="16.6" height="33.2"/>
		</g>
		<g>
			<g>
				<rect x="230.3" y="312.8" class="st8" width="104.2" height="80.4"/>
				<rect x="228.5" y="312.2" class="st9" width="104.2" height="80.4"/>
				<g>
					<path class="st10" d="M308.4,392.6c-0.1,0-0.2-17.9-0.2-40c0-22.1,0.1-40,0.2-40s0.2,17.9,0.2,40
						C308.6,374.7,308.5,392.6,308.4,392.6z"/>
				</g>
				<rect x="317.7" y="374.9" class="st14" width="8" height="9"/>
				<rect x="262.1" y="313" class="st11" width="11.8" height="17.1"/>
				<rect x="262.1" y="375.8" class="st11" width="11.8" height="17.1"/>
			</g>
			<g>
				<path class="st12" d="M333.6,312.8c0,0-0.1,0-0.3,0c-0.2,0-0.5,0-0.8,0c-0.7,0-1.7,0-3,0c-2.6,0-6.4,0-11.1,0.1
					c-9.4,0-22.3,0-36.5,0c-14.3,0-27.2,0-36.5,0c-4.7,0-8.4,0-11.1-0.1c-1.3,0-2.3,0-3,0c-0.3,0-0.6,0-0.8,0c-0.2,0-0.3,0-0.3,0
					s0.1,0,0.3,0c0.2,0,0.5,0,0.8,0c0.7,0,1.7,0,3,0c2.6,0,6.4,0,11.1-0.1c9.4,0,22.3,0,36.5,0c14.2,0,27.2,0,36.5,0.1
					c4.7,0,8.4,0,11.1,0.1c1.3,0,2.3,0,3,0c0.3,0,0.6,0,0.8,0C333.5,312.8,333.6,312.8,333.6,312.8z"/>
			</g>
		</g>
		<g>
			<g>
				<rect x="121.1" y="312.8" class="st10" width="104.2" height="80.4"/>
				<g>
					<path class="st13" d="M199.1,392.6c-0.1,0-0.2-17.9-0.2-40c0-22.1,0.1-40,0.2-40c0.1,0,0.2,17.9,0.2,40
						C199.3,374.7,199.2,392.6,199.1,392.6z"/>
				</g>
				<rect x="208.4" y="374.9" class="st14" width="8" height="9"/>
				<rect x="152.8" y="313" class="st15" width="11.8" height="17.1"/>
				<rect x="152.8" y="375.8" class="st15" width="11.8" height="17.1"/>
			</g>
			<g>
				<path class="st12" d="M224.3,312.8c0,0-0.1,0-0.3,0c-0.2,0-0.5,0-0.8,0c-0.7,0-1.7,0-3,0c-2.6,0-6.4,0-11.1,0.1
					c-9.4,0-22.3,0-36.5,0c-14.3,0-27.2,0-36.5,0c-4.7,0-8.4,0-11.1-0.1c-1.3,0-2.3,0-3,0c-0.3,0-0.6,0-0.8,0c-0.2,0-0.3,0-0.3,0
					s0.1,0,0.3,0c0.2,0,0.5,0,0.8,0c0.7,0,1.7,0,3,0c2.6,0,6.4,0,11.1-0.1c9.4,0,22.3,0,36.5,0c14.2,0,27.2,0,36.5,0.1
					c4.7,0,8.4,0,11.1,0.1c1.3,0,2.3,0,3,0c0.3,0,0.6,0,0.8,0C224.2,312.8,224.3,312.8,224.3,312.8z"/>
			</g>
		</g>
		<g>
			<path class="st18" d="M653.5,334.6c5.4,1.3,9.9,6.7,9.8,12.3c-0.1,5.5-4.4,10.7-9.8,11.8"/>
			<g class="st19">
				<path class="st14" d="M653.5,334.6c5.4,1.3,9.9,6.7,9.8,12.3c-0.1,5.5-4.4,10.7-9.8,11.8"/>
			</g>
			<g>
				<rect x="649.1" y="331.5" class="st8" width="4.6" height="30.4"/>
				<rect x="649.1" y="331" class="st9" width="4.6" height="30.4"/>
			</g>
		</g>
	</g>
</g>
<g id="Character">
	<path class="st20" d="M455.8,198.5"/>
	<g>
		<g>
			<path class="st21" d="M435.4,209.7c-1.1-0.9-1.5-2.5-0.8-3.7c0.8-1.3,1.7-2.9,2.1-3.6c0.9-1.4,1.5-2.6,1.4-2.4c0,0,0.4-1.7,2.1-2
				c1.7-0.3,3.7,0.1,3.7,0.1l12.5,2.7l5.8,2.9l-5.7,5l-3.1-1c-0.9,0.8-4.7,1.3-5.9,1.1c-1.6-0.2-4.8-1.2-6.7-0.9l-1.8,0.2l0.8,0.7
				c0,0,2.7-0.2,4.4,0.9c1,0.7,0.6,2.2-0.6,2.3l-4.1,0.3c0,0-2.7-1.3-3.2-1.8C436.2,210.3,435.8,210,435.4,209.7z"/>
			<g>
				<path class="st20" d="M439,208.1c0,0-0.2,0.2-0.7,0.3c-0.5,0.1-1.2,0.3-2,0c-0.4-0.1-0.9-0.4-1.2-0.8c-0.3-0.5-0.5-1-0.4-1.7
					c0.1-0.3,0.3-0.6,0.5-0.8c0.3-0.2,0.6-0.3,0.9-0.4c0.6-0.2,1.2-0.3,1.8-0.5c1.3-0.2,2.5-0.4,3.6-0.5c0.6,0,1.1-0.1,1.6-0.1
					c0.1,0,0.3,0,0.4,0c0.1,0,0.2,0,0.3,0c0.2,0,0.4-0.1,0.6-0.1c1.6-0.4,2.6-0.8,2.6-0.7c0,0.1-0.9,0.5-2.5,1
					c-0.2,0.1-0.4,0.1-0.7,0.2c-0.1,0-0.2,0-0.4,0c-0.1,0-0.2,0-0.3,0c-0.5,0-1,0.1-1.5,0.1c-1.1,0.1-2.3,0.2-3.5,0.5
					c-0.6,0.1-1.2,0.3-1.8,0.4c-0.6,0.2-1,0.4-1.1,0.9c-0.1,0.4,0,1,0.3,1.3c0.3,0.4,0.6,0.6,1,0.7c0.7,0.3,1.4,0.2,1.9,0.2
					C438.7,208.1,439,208.1,439,208.1z"/>
			</g>
			<g>
				<path class="st20" d="M440.6,201.6c0.1,0,0.4,0.6,0.1,1.4c-0.2,0.8-0.8,1.2-0.9,1.1c-0.1-0.1,0.2-0.6,0.4-1.3
					C440.4,202.2,440.4,201.6,440.6,201.6z"/>
			</g>
			<g>
				<path class="st20" d="M442.5,202.4c0.1,0,0.2,0.5-0.2,0.9c-0.3,0.4-0.8,0.5-0.9,0.4c-0.1-0.1,0.2-0.4,0.5-0.7
					C442.2,202.7,442.4,202.4,442.5,202.4z"/>
			</g>
		</g>
		<path class="st21" d="M491.8,199.6c1.7-0.7-9.9,11.2-9.9,11.2l-21.4-8l-7.6,4.6l23.1,16.2c2.7,1.9,6,2.6,9.3,2
			c2.5-0.5,4.7-1.7,6.5-3.5l13.6-15.7L491.8,199.6z"/>
		<g>
			<g>
				<path class="st22" d="M504.3,151.8c-3-0.6-4.9-1.5-4.9-2.6c-0.2-2.4,7.4-4.8,16.9-5.5c9.5-0.6,17.3,0.8,17.5,3.1
					c0.1,1.1-1.6,2.3-4.5,3.3"/>
			</g>
			<g class="st23">
				<path d="M506,151.6c-2.6-0.5-4.4-1.3-4.4-2.3c0-2.8,6.6-4.3,14.9-4.8c8.4-0.6,15.3,0.7,15.5,2.8c0.1,1-1.5,2-4,2.9"/>
			</g>
			<g>
				<path class="st22" d="M501.7,147.9c0,0,1.8-10.3,1.9-10.8c0.2-0.5,2.8-5.1,9.5-6.8l5.7-0.4c0,0,8.2,2,9.8,3.9
					c1.6,1.9,2.9,11.4,2.9,11.4l-16.2-2.4l-10.7,3.4L501.7,147.9z"/>
			</g>
			<g>
				<path class="st22" d="M514.9,129c-0.2,0-2.4,0.2-2.4,0.2s-0.8,0.9-0.8,2.6c0,1.8,0.4,13.9,0.4,13.9l7.1-0.8l-1.2-14.9l2.5,0.4
					l-0.1-0.8l-0.7-0.7L514.9,129z"/>
			</g>
			<g>
				<g>
					<g>
						<g>
							<g>
								<g>
									<g>
										<g>
											<g>
												<g>
													<g>
														<g>
															<g>
																<g>
																	<path class="st21" d="M529.8,184.9l-17.4,0.4c-0.2-1.8-0.1-13.3-0.1-13.3s-6.6-0.6-7.2-7.1
																		c-0.5-6.6-0.4-19.7-0.4-19.7l0.1-0.6c7.4-3.8,16.1-4.7,23-0.1l1,0.7L529.8,184.9z"/>
																</g>
															</g>
														</g>
													</g>
												</g>
											</g>
											<g>
												<g>
													<g>
														<g>
															<g>
																<g>
																	<path class="st20" d="M512.3,172c0,0,4.1,0,8.4-3.1c0,0-1.8,5-8.4,4.8L512.3,172z"/>
																</g>
															</g>
														</g>
													</g>
												</g>
											</g>
										</g>
									</g>
								</g>
								<g>
									<g>
										<g>
											<g>
												<g>
													<g>
														<g>
															<path class="st21" d="M528.5,152c0.1-0.1,4.4-1.6,4.6,2.9c0.2,4.5-4.4,3.7-4.4,3.6C528.7,158.3,528.5,152,528.5,152z
																"/>
														</g>
													</g>
												</g>
											</g>
										</g>
									</g>
									<g>
										<g>
											<g>
												<g>
													<g>
														<g>
															<g>
																<path class="st20" d="M530,156.7c0,0,0.1,0.1,0.2,0.1c0.1,0.1,0.4,0.1,0.6,0c0.5-0.2,0.8-1,0.8-1.8
																	c0-0.4-0.1-0.8-0.3-1.1c-0.1-0.3-0.4-0.5-0.6-0.6c-0.2,0-0.4,0.1-0.5,0.2c-0.1,0.1,0,0.2,0,0.2c0,0-0.1-0.1-0.1-0.3
																	c0-0.1,0.1-0.2,0.2-0.3c0.1-0.1,0.3-0.1,0.4-0.1c0.3,0,0.7,0.3,0.8,0.7c0.2,0.3,0.3,0.8,0.3,1.2
																	c0,0.9-0.4,1.8-1.1,2c-0.3,0.1-0.6,0-0.7-0.1C530,156.8,530,156.7,530,156.7z"/>
															</g>
														</g>
													</g>
												</g>
											</g>
										</g>
									</g>
								</g>
								<g>
									<g>
										<g>
											<g>
												<g>
													<g>
														<g>
															<g>
																<g>
																	<g>
																		<g>
																			<g>
																				<path class="st12" d="M506.9,153.2c0,0.5,0.4,0.9,1,0.9c0.5,0,0.9-0.4,0.9-0.9c0-0.5-0.4-0.9-1-0.9
																					C507.3,152.3,506.9,152.7,506.9,153.2z"/>
																			</g>
																		</g>
																	</g>
																</g>
															</g>
														</g>
														<g>
															<g>
																<g>
																	<g>
																		<g>
																			<g>
																				<g>
																					<path class="st12" d="M506.6,152.3c0.1,0.1,0.8-0.5,1.8-0.5c1-0.1,1.8,0.4,1.9,0.3c0-0.1-0.1-0.3-0.4-0.5
																						c-0.3-0.2-0.9-0.4-1.5-0.4c-0.6,0-1.1,0.3-1.4,0.6C506.7,152,506.6,152.2,506.6,152.3z"/>
																				</g>
																			</g>
																		</g>
																	</g>
																</g>
															</g>
														</g>
													</g>
													<g>
														<g>
															<g>
																<g>
																	<g>
																		<g>
																			<g>
																				<path class="st12" d="M516.9,152.9c0,0.5,0.4,0.9,1,0.9c0.5,0,0.9-0.4,0.9-0.9c0-0.5-0.4-0.9-1-0.9
																					C517.2,152,516.8,152.4,516.9,152.9z"/>
																			</g>
																		</g>
																	</g>
																</g>
															</g>
														</g>
														<g>
															<g>
																<g>
																	<g>
																		<g>
																			<g>
																				<g>
																					<path class="st12" d="M516.5,151.8c0.1,0.1,0.8-0.5,1.8-0.5c1-0.1,1.8,0.4,1.9,0.3c0-0.1-0.1-0.3-0.4-0.5
																						c-0.3-0.2-0.9-0.4-1.5-0.4c-0.6,0-1.1,0.3-1.4,0.6C516.6,151.5,516.5,151.8,516.5,151.8z"/>
																				</g>
																			</g>
																		</g>
																	</g>
																</g>
															</g>
														</g>
													</g>
													<g>
														<g>
															<g>
																<g>
																	<g>
																		<g>
																			<g>
																				<path class="st12" d="M513.4,159.5c0-0.1-0.6-0.1-1.7-0.2c-0.3,0-0.5,0-0.6-0.2c-0.1-0.2,0-0.5,0.1-0.8
																					c0.2-0.6,0.4-1.3,0.6-2c0.9-2.9,1.5-5.2,1.4-5.2c-0.1,0-0.9,2.3-1.8,5.1c-0.2,0.7-0.4,1.4-0.6,2
																					c-0.1,0.3-0.2,0.6-0.1,1c0.1,0.2,0.3,0.3,0.4,0.3c0.2,0,0.3,0,0.4,0C512.8,159.6,513.4,159.6,513.4,159.5z"/>
																			</g>
																		</g>
																	</g>
																</g>
															</g>
														</g>
													</g>
													<g>
														<g>
															<g>
																<g>
																	<g>
																		<g>
																			<g>
																				<path class="st12" d="M516.4,160c-0.2,0-0.1,1.1-1,1.9c-0.9,0.8-2.1,0.8-2.1,1c0,0.1,0.3,0.2,0.8,0.2
																					c0.5,0,1.2-0.2,1.7-0.7c0.5-0.5,0.7-1.2,0.7-1.6C516.6,160.3,516.5,160,516.4,160z"/>
																			</g>
																		</g>
																	</g>
																</g>
															</g>
														</g>
													</g>
												</g>
											</g>
										</g>
										<g>
											<g>
												<g>
													<g>
														<g>
															<g>
																<path class="st12" d="M516,147.9c0.1,0.3,1.1,0.1,2.3,0.1c1.2,0,2.2,0.3,2.3,0.1c0.1-0.1-0.1-0.4-0.5-0.6
																	c-0.4-0.2-1-0.4-1.7-0.5c-0.7,0-1.4,0.1-1.8,0.3C516.2,147.5,516,147.8,516,147.9z"/>
															</g>
														</g>
													</g>
												</g>
											</g>
										</g>
										<g>
											<g>
												<g>
													<g>
														<g>
															<g>
																<path class="st12" d="M506.8,149.4c0.2,0.2,0.9-0.1,1.7-0.1c0.8-0.1,1.6,0,1.7-0.2c0.1-0.1-0.1-0.3-0.4-0.5
																	c-0.3-0.2-0.8-0.3-1.4-0.3c-0.6,0.1-1.1,0.3-1.3,0.6C506.8,149,506.7,149.3,506.8,149.4z"/>
															</g>
														</g>
													</g>
												</g>
											</g>
										</g>
									</g>
								</g>
							</g>
						</g>
					</g>
				</g>
			</g>
			<g>
				<path class="st12" d="M529,147.7c-0.1,1.8,0.1,3.7,0.1,5.5c0,0.7-0.3,1.4-0.5,2c-0.2,0.6-0.8,1.2-1.4,1.3
					c-0.8,0.1-1.6-0.4-2-1.1c-0.4-0.7-0.5-1.5-0.6-2.3c-0.1-0.8-0.1-1.6-0.4-2.4c-0.3-0.8-1-1.5-1.5-2.2c-0.5-0.7-0.9-1.7-0.6-2.5
					C524.5,145.9,526.8,146.7,529,147.7"/>
			</g>
			<g>
				<path class="st10" d="M504.8,148.6l-0.1-3.7l10.5-3.9l13.6,3l0.3,3.9C529.1,147.9,517.8,143,504.8,148.6z"/>
			</g>
			<g>
				<path class="st22" d="M505.3,144.1l-0.4,0.5l-3.7,2.7c0,0,7.3-2.6,14.9-3c7.7-0.4,16.6,1.6,16.6,1.6l-5.3-2.7l0,0
					c-1.7-1.6-4-2.5-6.4-2.4l-9.6,0.5C509,141.3,506.8,142.3,505.3,144.1z"/>
			</g>
			<g>
				<g>
					<path class="st10" d="M512,140.9c0.1,0,0.2-2.3,0.1-5.1c0-2.8-0.2-5.1-0.3-5.1c-0.1,0-0.2,2.3-0.1,5.1
						C511.7,138.6,511.9,140.9,512,140.9z"/>
				</g>
			</g>
			<g>
				<g>
					<path class="st10" d="M520.4,130.3c0,0-0.6-0.2-1.8-0.4c-0.3,0-0.7,0.3-0.7,0.8c0,0.3,0,0.7,0.1,1.1c0.1,0.8,0.1,1.6,0.2,2.4
						c0.1,1.7,0.3,3.3,0.4,4.4c0.1,1.1,0.2,1.8,0.3,1.8s0-0.7,0-1.8c-0.1-1.1-0.2-2.7-0.3-4.4c-0.1-0.9-0.2-1.7-0.2-2.4
						c0-0.4-0.1-0.7-0.1-1.1c0-0.3,0.2-0.5,0.4-0.5C519.7,130.3,520.4,130.4,520.4,130.3z"/>
				</g>
			</g>
			<g>
				<g>
					<path class="st10" d="M500.9,147.2c0,0,0.4-0.2,1.2-0.6c0.4-0.2,0.9-0.4,1.5-0.7c0.5-0.3,1.2-0.7,1.6-1.4
						c0.5-0.7,0.5-1.6,1-2.3c0.5-0.7,1.5-0.8,2.6-0.9c2.1-0.2,4.3-0.4,6.7-0.5c2.4-0.1,4.7-0.1,6.8-0.1c1,0,2,0.1,2.7,0.7
						c0.3,0.3,0.6,0.6,0.9,1c0.1,0.2,0.3,0.3,0.4,0.5l0.2,0.2c0.1,0.1,0.2,0.1,0.3,0.2c1.5,0.6,2.7,1,3.5,1.3
						c0.8,0.3,1.3,0.5,1.3,0.4c0,0-0.1-0.1-0.3-0.2c-0.2-0.1-0.5-0.2-0.9-0.4c-0.8-0.4-2-0.8-3.4-1.4c-0.1,0-0.2-0.1-0.2-0.1
						l-0.2-0.2c-0.1-0.2-0.3-0.3-0.4-0.5c-0.3-0.3-0.5-0.7-0.9-1c-0.8-0.7-1.9-0.8-2.9-0.8c-2.1,0-4.4,0-6.8,0.1
						c-2.4,0.1-4.7,0.3-6.8,0.5c-0.5,0.1-1,0.1-1.5,0.2c-0.5,0.1-1,0.4-1.3,0.8c-0.6,0.8-0.6,1.8-1,2.4c-0.4,0.7-1,1.1-1.5,1.4
						c-0.5,0.3-1,0.5-1.4,0.7c-0.4,0.2-0.7,0.4-0.9,0.5C501,147.1,500.9,147.2,500.9,147.2z"/>
				</g>
			</g>
			<g>
				<g>
					<path class="st12" d="M502.4,147.7c0,0,0.1,0,0.3-0.2c0.2-0.1,0.4-0.3,0.8-0.5c0.7-0.4,1.7-0.8,3.1-1.2
						c2.7-0.7,6.6-1.4,10.8-1.3c2.2,0,4.2,0,6,0.1c1.8,0.1,3.5,0.4,4.9,0.6c0.7,0.1,1.3,0.3,1.8,0.4c0.5,0.1,1,0.3,1.3,0.5
						c0.6,0.5,0.4,1.1,0.5,1c0,0,0.1-0.1,0.1-0.3c0-0.2-0.1-0.5-0.4-0.8c-0.3-0.3-0.8-0.5-1.3-0.6c-0.5-0.2-1.2-0.3-1.9-0.5
						c-1.4-0.3-3-0.5-4.9-0.7c-1.9-0.1-3.9-0.1-6.1-0.1c-4.3-0.1-8.2,0.6-10.9,1.4c-1.4,0.4-2.4,0.9-3.1,1.3
						c-0.3,0.2-0.6,0.4-0.7,0.5C502.4,147.6,502.4,147.7,502.4,147.7z"/>
				</g>
			</g>
			<g>
				<g>
					<path class="st4" d="M513.5,129.4c0,0,0.4,0,1,0c0.8,0,1.6-0.1,2.4-0.1c0.9,0,1.8-0.1,2.4-0.1c0.6,0.1,0.8,0.5,0.8,0.4
						c0,0,0-0.1-0.1-0.2c-0.1-0.1-0.4-0.3-0.7-0.3c-0.6-0.1-1.5,0-2.4,0c-0.8,0-1.6,0.1-2.4,0.1
						C513.9,129.3,513.5,129.4,513.5,129.4z"/>
				</g>
			</g>
			<g>
				<g>
					<path class="st4" d="M513.1,141.3c0,0,0.2,0,0.5,0c0.4,0,0.9,0,1.4,0c1.2,0,2.8,0,4.6,0c0.9,0,1.7,0,2.5,0.1c0.8,0,1.5,0,2,0.2
						c0.6,0.1,0.9,0.4,1.1,0.7c0.2,0.3,0.2,0.4,0.2,0.4c0,0,0-0.2-0.2-0.5c-0.2-0.3-0.6-0.6-1.2-0.8c-0.6-0.2-1.3-0.2-2.1-0.2
						c-0.8,0-1.6-0.1-2.5-0.1c-1.8,0-3.4,0-4.6,0c-0.5,0-1,0-1.4,0.1C513.3,141.2,513.1,141.3,513.1,141.3z"/>
				</g>
			</g>
			<g>
				<g>
					<path class="st4" d="M518.4,139.5c0,0,0-0.1,0-0.4c0-0.3-0.1-0.6-0.1-1c-0.1-0.8-0.3-2-0.4-3.2c-0.1-1.3-0.2-2.4-0.3-3.3
						c0-0.3,0-0.7-0.1-1c0-0.2,0-0.4,0-0.4c0,0,0,0.1,0,0.4c0,0.2,0,0.6,0,1c0,0.8,0.1,2,0.2,3.3c0.1,1.3,0.3,2.4,0.4,3.2
						c0.1,0.4,0.1,0.7,0.2,1C518.4,139.4,518.4,139.5,518.4,139.5z"/>
				</g>
			</g>
			<g>
				<g>
					<path class="st4" d="M526.7,143.5c0,0,0.1,0.1,0.3,0.1c0.3,0.1,0.6,0.2,0.9,0.3c0.9,0.3,1.9,0.7,2.9,1c0.6,0.2,1.1,0.4,1.6,0.6
						c0.5,0.2,0.8,0.6,0.9,0.9c0.2,0.4,0.1,0.7,0.1,0.9c-0.1,0.2-0.1,0.3-0.1,0.3c0,0,0.1-0.1,0.2-0.3c0.1-0.2,0.1-0.6,0-0.9
						c-0.1-0.4-0.5-0.8-1-1c-0.5-0.3-1-0.4-1.6-0.6c-1-0.4-2-0.7-2.9-1c-0.3-0.1-0.6-0.2-0.9-0.3
						C526.8,143.5,526.7,143.5,526.7,143.5z"/>
				</g>
			</g>
		</g>
		<g>
			<g>
				<g>
					<g>
						<g>
							<path class="st10" d="M452.8,322.2l0.9,16.2c0,0-16.2,6.4-16.3,9.4l31.5-0.6l-0.4-25.4L452.8,322.2z"/>
						</g>
						<g class="st23">
							<path d="M452.6,321.7l0.9,16.2c0,0-16.2,6.4-16.3,9.4l31.5-0.6l-0.4-25.4L452.6,321.7z"/>
						</g>
						<g>
							<g>
								<path class="st3" d="M463.4,336.9c0.6,0.2,1,0.8,0.9,1.5c-0.1,0.6-0.8,1.1-1.4,0.9c-0.6-0.1-1.2-0.9-1-1.5
									c0.2-0.6,1-1.1,1.6-0.8"/>
							</g>
						</g>
						<g>
							<path class="st3" d="M468.9,347.2l-0.1-2.6l-30.2,1.6c0,0-1.4,0.6-1.2,1.6L468.9,347.2z"/>
						</g>
						<g>
							<g>
								<path class="st12" d="M453.2,338.3c0,0.2,0.8,0.2,1.5,0.7c0.8,0.5,1.2,1.1,1.3,1.1c0.1,0-0.1-0.9-1-1.5
									C454.1,337.9,453.2,338.1,453.2,338.3z"/>
							</g>
						</g>
						<g>
							<g>
								<path class="st12" d="M449.9,339.7c0,0.1,0.6,0.4,1.2,1c0.6,0.6,0.7,1.3,0.9,1.3c0.1,0,0.2-0.9-0.4-1.7
									C450.8,339.6,449.9,339.6,449.9,339.7z"/>
							</g>
						</g>
						<g>
							<g>
								<path class="st12" d="M448.1,343.7c0.1,0,0.3-0.7-0.1-1.6c-0.4-0.8-1.1-1.2-1.2-1c-0.1,0.1,0.4,0.6,0.7,1.3
									C447.9,343,448,343.7,448.1,343.7z"/>
							</g>
						</g>
						<g>
							<g>
								<path class="st12" d="M453.4,334.5c0.1,0.1,0.8-0.1,1.6,0c0.9,0,1.6,0.3,1.6,0.2c0.1-0.1-0.6-0.7-1.6-0.7
									C454,333.9,453.3,334.4,453.4,334.5z"/>
							</g>
						</g>
					</g>
					<g class="st9">
						<polygon points="453,325.4 453.2,328.3 468.7,327.8 468.6,325.2 						"/>
					</g>
					<g>
						<g>
							<path class="st12" d="M453.3,331.3c0,0.1,0.6,0.1,1.6,0c0.5-0.1,1-0.3,1.6-0.5c0.3-0.1,0.6-0.3,0.9-0.5
								c0.1-0.1,0.3-0.2,0.5-0.4c0.2-0.2,0.3-0.6,0.1-0.8c-0.2-0.2-0.5-0.3-0.7-0.3c-0.2,0-0.4,0-0.6,0.1c-0.3,0.1-0.7,0.2-1,0.4
								c-0.6,0.3-1.1,0.6-1.4,1c-0.7,0.7-1,1.3-0.9,1.3c0.1,0,0.4-0.4,1.2-1c0.4-0.3,0.8-0.6,1.4-0.8c0.3-0.1,0.6-0.2,0.9-0.3
								c0.3-0.1,0.6-0.1,0.7,0c0,0.1,0,0.1,0,0.2c-0.1,0.1-0.2,0.2-0.3,0.3c-0.3,0.2-0.6,0.4-0.8,0.5c-0.5,0.3-1.1,0.5-1.5,0.6
								C453.9,331.1,453.3,331.2,453.3,331.3z"/>
						</g>
					</g>
					<g>
						<g>
							<path class="st12" d="M453.5,331.5c0.1,0,0.3-0.5,0.4-1.5c0-0.5,0-1.1-0.2-1.7c-0.1-0.3-0.2-0.6-0.4-1
								c-0.2-0.3-0.4-0.7-1-0.8c-0.3,0-0.6,0.2-0.7,0.5c-0.1,0.2-0.1,0.4-0.2,0.6c-0.1,0.4,0,0.7,0,1.1c0.1,0.7,0.4,1.2,0.7,1.6
								c0.6,0.8,1.3,1,1.3,0.9c0-0.1-0.5-0.4-1-1.1c-0.2-0.4-0.5-0.9-0.5-1.5c0-0.3,0-0.6,0-0.9c0-0.3,0.2-0.6,0.3-0.6
								c0.2,0,0.4,0.2,0.6,0.5c0.2,0.3,0.3,0.6,0.4,0.8c0.2,0.6,0.3,1.1,0.3,1.6C453.6,330.9,453.4,331.5,453.5,331.5z"/>
						</g>
					</g>
				</g>
				<g>
					<g>
						<g>
							<g>
								<path class="st16" d="M538,253.2c0,0-3.4,17.7-9.2,17.9c-7,0.3-57.9,1-57.9,1l3.1,56.6l-22.2-0.5l-8.9-55.8
									c-1-5-0.2-10.2,2.4-14.6c0.1-0.1,0.1-0.2,0.2-0.3c3.8-6.4,10.8-10.1,18.2-10.2l42.2-0.6L538,253.2z"/>
							</g>
						</g>
					</g>
				</g>
			</g>
			<g>
				<g>
					<g>
						<g>
							<path class="st10" d="M461.4,322.2l0.9,16.2c0,0-16.2,6.4-16.3,9.4l31.5-0.6l-0.4-25.4L461.4,322.2z"/>
						</g>
						<g>
							<g>
								<path class="st3" d="M472.1,336.9c0.6,0.2,1,0.8,0.9,1.5c-0.1,0.6-0.8,1.1-1.4,0.9c-0.6-0.1-1.2-0.9-1-1.5
									c0.2-0.6,1-1.1,1.6-0.8"/>
							</g>
						</g>
						<g>
							<path class="st3" d="M477.6,347.2l-0.1-2.6l-30.2,1.6c0,0-1.4,0.6-1.2,1.6L477.6,347.2z"/>
						</g>
						<g>
							<g>
								<path class="st12" d="M461.8,338.3c0,0.2,0.8,0.2,1.5,0.7c0.8,0.5,1.2,1.1,1.3,1.1c0.1,0-0.1-0.9-1-1.5
									C462.7,337.9,461.8,338.1,461.8,338.3z"/>
							</g>
						</g>
						<g>
							<g>
								<path class="st12" d="M458.5,339.7c0,0.1,0.6,0.4,1.2,1c0.6,0.6,0.7,1.3,0.9,1.3c0.1,0,0.2-0.9-0.4-1.7
									C459.5,339.6,458.5,339.6,458.5,339.7z"/>
							</g>
						</g>
						<g>
							<g>
								<path class="st12" d="M456.7,343.7c0.1,0,0.3-0.7-0.1-1.6c-0.4-0.8-1.1-1.2-1.2-1c-0.1,0.1,0.4,0.6,0.7,1.3
									C456.5,343,456.6,343.7,456.7,343.7z"/>
							</g>
						</g>
						<g>
							<g>
								<path class="st12" d="M462,334.5c0.1,0.1,0.8-0.1,1.6,0c0.9,0,1.6,0.3,1.6,0.2c0.1-0.1-0.6-0.7-1.6-0.7
									C462.7,333.9,462,334.4,462,334.5z"/>
							</g>
						</g>
					</g>
					<g class="st9">
						<polygon points="461.6,325.4 461.8,328.3 477.3,327.8 477.2,325.2 						"/>
					</g>
					<g>
						<g>
							<path class="st12" d="M461.9,331.3c0,0.1,0.6,0.1,1.6,0c0.5-0.1,1-0.3,1.6-0.5c0.3-0.1,0.6-0.3,0.9-0.5
								c0.1-0.1,0.3-0.2,0.5-0.4c0.2-0.2,0.3-0.6,0.1-0.8c-0.2-0.2-0.5-0.3-0.7-0.3c-0.2,0-0.4,0-0.6,0.1c-0.3,0.1-0.7,0.2-1,0.4
								c-0.6,0.3-1.1,0.6-1.4,1c-0.7,0.7-1,1.3-0.9,1.3c0.1,0,0.4-0.4,1.2-1c0.4-0.3,0.8-0.6,1.4-0.8c0.3-0.1,0.6-0.2,0.9-0.3
								c0.3-0.1,0.6-0.1,0.7,0c0,0.1,0,0.1,0,0.2c-0.1,0.1-0.2,0.2-0.3,0.3c-0.3,0.2-0.6,0.4-0.8,0.5c-0.5,0.3-1.1,0.5-1.5,0.6
								C462.5,331.1,461.9,331.2,461.9,331.3z"/>
						</g>
					</g>
					<g>
						<g>
							<path class="st12" d="M462.1,331.5c0.1,0,0.3-0.5,0.4-1.5c0-0.5,0-1.1-0.2-1.7c-0.1-0.3-0.2-0.6-0.4-1
								c-0.2-0.3-0.4-0.7-1-0.8c-0.3,0-0.6,0.2-0.7,0.5c-0.1,0.2-0.1,0.4-0.2,0.6c-0.1,0.4,0,0.7,0,1.1c0.1,0.7,0.4,1.2,0.7,1.6
								c0.6,0.8,1.3,1,1.3,0.9c0-0.1-0.5-0.4-1-1.1c-0.2-0.4-0.5-0.9-0.5-1.5c0-0.3,0-0.6,0-0.9c0-0.3,0.2-0.6,0.3-0.6
								c0.2,0,0.4,0.2,0.6,0.5c0.2,0.3,0.3,0.6,0.4,0.8c0.2,0.6,0.3,1.1,0.3,1.6C462.2,330.9,462,331.5,462.1,331.5z"/>
						</g>
					</g>
				</g>
				<g>
					<g>
						<g>
							<g>
								<path class="st16" d="M543.6,253.2c0,0-3.4,17.7-9.2,17.9c-7,0.3-57.9,1-57.9,1l3.1,56.6l-22.2-0.5l-8.9-55.8
									c-1-5-0.2-10.2,2.4-14.6c0.1-0.1,0.1-0.2,0.2-0.3c3.8-6.4,10.8-10.1,18.2-10.2l42.2-0.6L543.6,253.2z"/>
							</g>
						</g>
					</g>
				</g>
				<g>
					<g>
						<path class="st22" d="M500.3,182.2l6.6,44.5l-4.5,20l41.1,12.1c3.7-5.3,3.9-22.2,3.7-34.2c-0.2-21.1,0.7-22.1-0.2-29.5
							c-0.9-7.3-2.5-12.1-6.4-14.5l-11.2-5.7c0,0-6.3,4-10.2,3.8c0,0-4.6,0.2-7.1-2.2C512.3,176.5,503,179.3,500.3,182.2z"/>
					</g>
				</g>
				<polygon class="st22" points="500.3,182.2 486.6,201.1 505.3,212.1 503.8,205.2 				"/>
				<g>
					<path class="st11" d="M467.6,247.5c0,0-0.1,0-0.2,0c-0.2,0-0.4,0-0.7,0.1c-0.3,0-0.7,0.1-1.1,0.1c-0.4,0-0.9,0.2-1.5,0.3
						c-2.2,0.5-5.5,1.8-8.6,4.5c-1.5,1.4-3,3.1-4.3,5.2c-1.2,2.1-2.1,4.5-2.4,7.3c-0.3,2.7-0.1,5.6,0.3,8.5c0.4,3,1,6,1.3,9.2
						c0.7,6.3,1.7,12.3,2.6,17.7c0.9,5.4,1.7,10.3,2.4,14.4c0.7,4.1,1.2,7.4,1.6,9.7c0.2,1.1,0.3,2,0.4,2.7c0,0.3,0.1,0.5,0.1,0.7
						c0,0.2,0,0.2,0,0.2c0,0,0-0.1-0.1-0.2c0-0.2-0.1-0.4-0.1-0.7c-0.1-0.6-0.3-1.5-0.5-2.6c-0.4-2.3-1-5.6-1.7-9.7
						c-0.7-4.1-1.6-9-2.6-14.4c-0.9-5.4-1.9-11.4-2.6-17.7c-0.3-3.2-0.9-6.2-1.3-9.2c-0.4-3-0.6-5.9-0.3-8.7
						c0.3-2.8,1.2-5.3,2.5-7.4c1.3-2.1,2.8-3.9,4.4-5.2c3.2-2.8,6.5-4,8.8-4.5C466.3,247.4,467.6,247.5,467.6,247.5z"/>
				</g>
				<g>
					<g>
						<path class="st21" d="M483.4,233.8c0,0,15.9,5.1,28.2,9.6c4.3,1.5,9,0.9,12.6-1.8l0,0c2.3-1.7,4-4.1,4.9-6.8l8.5-26.6
							l-14.1-4.9l-9.4,23.9l-35.1-4.6"/>
						<g>
							<path class="st21" d="M462.4,228.3l-0.1-1.3c0.1-0.9,0.5-1.8,1.1-2.5l0,0c0.3-0.4,0.7-0.7,1.2-0.9l4.2-2.2
								c0.6-0.3,1.3-0.4,2-0.3l8.5,1.4l9.8,1.3l-2,11.1l-4.5-1.5c0,0-3.3,1.8-5.3,1.4c0,0-1.9,1.2-2.6,0.3c0,0-1.7,1.4-2.3,1.3
								s-1.9-0.8-1.8-1.2l0-0.6c0,0-1.2,0.6-2.1-0.1c-0.8-0.7-1-1.3-1-1.3s-1.5-0.2-2.1-0.9c-0.6-0.7-0.8-1.9-0.8-1.9
								S462.7,229.6,462.4,228.3z"/>
							<g>
								<path class="st20" d="M468.7,224.3c0.1,0,0.2,0.5,0,1.2c-0.2,0.7-0.8,1.6-1.5,2.3c-0.7,0.8-1.4,1.4-1.9,1.9
									c-0.4,0.5-0.7,0.9-0.7,0.8c-0.1,0,0-0.5,0.4-1.1c0.4-0.6,1.1-1.3,1.8-2.1c0.7-0.7,1.3-1.5,1.5-2.1
									C468.6,224.7,468.6,224.3,468.7,224.3z"/>
							</g>
							<g>
								<path class="st20" d="M470.3,228.7c0.1,0.1-0.3,1.2-1.1,2.5c-0.8,1.3-1.7,2.1-1.8,2c-0.1-0.1,0.6-1.1,1.4-2.3
									C469.6,229.7,470.2,228.7,470.3,228.7z"/>
							</g>
							<g>
								<path class="st20" d="M472.5,231.7c0.1,0.1-0.2,0.8-0.8,1.6c-0.6,0.8-1.1,1.4-1.2,1.3c-0.1-0.1,0.2-0.8,0.8-1.6
									C471.8,232.2,472.4,231.6,472.5,231.7z"/>
							</g>
							<g>
								<path class="st20" d="M472.1,230.5c0,0.1-0.2,0.1-0.5-0.1c-0.3-0.2-0.6-0.5-0.6-1c-0.1-0.5,0.1-0.9,0.3-1.1
									c0.2-0.2,0.4-0.3,0.4-0.2c0.1,0.1-0.3,0.6-0.2,1.3C471.6,230,472.1,230.4,472.1,230.5z"/>
							</g>
							<g>
								<path class="st20" d="M474.4,233.5c0,0.1-0.2,0.1-0.4,0c-0.2-0.1-0.5-0.4-0.6-0.8c-0.1-0.4,0-0.8,0.3-1
									c0.3-0.2,0.5-0.1,0.4,0c-0.1,0.1-0.3,0.3-0.2,0.8C474.1,233.1,474.5,233.3,474.4,233.5z"/>
							</g>
							<g>
								<path class="st20" d="M470.7,227.3c0,0.1-0.2,0.1-0.5,0c-0.3-0.1-0.7-0.5-0.7-1c0-0.5,0.3-1,0.5-1.2
									c0.3-0.2,0.5-0.2,0.5-0.1c0.1,0.1-0.6,0.5-0.5,1.2C470,226.9,470.7,227.2,470.7,227.3z"/>
							</g>
						</g>
					</g>
					<g>
						<path class="st22" d="M537.6,184.3c-3.2-1.4-7.2,0-9.5,2.4c-2.3,2.4-3.4,5.6-4.4,8.7c-1,3-3.4,9.1-4.3,12.1l18.3,7.8
							c1.6-4.2,3-8.5,4.4-12.8c1.1-3.6,2.2-7.5,0.9-11.1"/>
						<g>
							<path class="st10" d="M542.9,191.6c0,0,0.1,0.1,0.2,0.4c0.1,0.3,0.2,0.7,0.4,1.3c0.2,1.2,0.3,3-0.1,5.1
								c-0.4,2.2-1.2,4.7-2.2,7.5c-1,2.9-2,6-3.2,9.5l-0.1,0.2l-0.3-0.1c-4-1.7-8.3-3.6-12.9-5.5c-1.9-0.8-3.7-1.6-5.4-2.3l-0.2-0.1
								l0.1-0.2c1.5-4.4,3.1-8.4,4.4-12c0.6-1.8,1.2-3.6,2-5.2c0.8-1.6,1.7-2.9,2.9-4c2.3-2.1,5-2.7,6.7-2.6c0.9,0,1.5,0.2,2,0.4
								c0.4,0.2,0.6,0.3,0.6,0.3c0,0.1-0.9-0.4-2.6-0.5c-1.7,0-4.3,0.6-6.4,2.7c-1.1,1-2,2.4-2.7,3.9c-0.7,1.5-1.3,3.3-1.9,5.1
								c-1.2,3.7-2.9,7.7-4.3,12l-0.1-0.3c1.7,0.7,3.6,1.5,5.4,2.3c4.5,1.9,8.9,3.8,12.9,5.5l-0.3,0.1c1.2-3.4,2.3-6.6,3.3-9.4
								c1-2.8,1.9-5.3,2.3-7.5c0.5-2.1,0.5-3.9,0.3-5C543.1,192.2,542.8,191.6,542.9,191.6z"/>
						</g>
					</g>
					<g>
						<path class="st20" d="M519.4,236.3c-0.1,0-0.2-1-0.8-2.8c-0.3-0.9-0.8-2-1.5-3.1c-0.7-1.1-1.8-2.3-3.2-3.1l0.1,0
							c-5.3-0.7-12.2-1.6-19.8-2.6c-4.2-0.6-8.3-1.1-11.9-1.6c-1.8-0.3-3.6-0.5-5.2-0.7c-1.6-0.3-3.1-0.5-4.5-0.7
							c-0.7-0.1-1.3-0.2-2-0.3c-0.6-0.1-1.1,0-1.6,0.3c-1,0.5-1.8,0.9-2.6,1.2c-0.7,0.3-1.2,0.6-1.6,0.8c-0.4,0.2-0.6,0.3-0.6,0.2
							c0,0,0.2-0.1,0.5-0.3c0.4-0.2,0.9-0.5,1.6-0.9c0.7-0.4,1.6-0.8,2.5-1.3c0.5-0.3,1.1-0.5,1.8-0.4c0.6,0.1,1.3,0.2,2,0.3
							c1.4,0.2,2.9,0.4,4.5,0.7c1.6,0.2,3.4,0.4,5.2,0.7c3.7,0.5,7.7,1,11.9,1.6c7.6,1,14.5,2,19.8,2.7l0,0l0,0
							c1.6,0.9,2.6,2.1,3.3,3.2c0.7,1.2,1.2,2.3,1.4,3.2c0.3,0.9,0.4,1.6,0.5,2.1C519.4,236,519.5,236.3,519.4,236.3z"/>
					</g>
				</g>
			</g>
			<g>
				<path class="st10" d="M507,226c0,0-0.1-0.5-0.3-1.4c-0.2-1-0.4-2.3-0.6-3.9c-0.6-3.4-1.3-8-2.1-13c-0.8-5-1.6-9.6-2.2-13
					c-0.2-1.6-0.5-2.9-0.6-3.9c-0.1-0.9-0.2-1.5-0.2-1.5c0,0,0.2,0.5,0.4,1.4c0.2,1,0.5,2.3,0.8,3.9c0.6,3.3,1.5,7.9,2.3,13
					c0.8,5.1,1.6,9.7,2,13c0.2,1.7,0.4,3,0.5,4C507,225.5,507,226,507,226z"/>
			</g>
		</g>
	</g>
</g>
<g id="Floor">
	<g>
		<path class="st22" d="M696.5,444.9c0,0.1-144.7,0.3-323.2,0.3C194.7,445.2,50,445,50,444.9c0-0.1,144.7-0.3,323.3-0.3
			C551.8,444.6,696.5,444.8,696.5,444.9z"/>
	</g>
</g>
<g id="Plant">
	<g>
		<g>
			<path class="st10" d="M69.4,411.6c-1.6,2.2-4.6,1.4-6,0c-1.4-1.4-1.9-3.4-2.4-5.2c-1.1-4.3-2.2-8.8-1.2-13.1
				c0.3-1.3,0.8-2.6,1.8-3.5c0.9-0.9,2.4-1.5,3.6-1.1c1.5,0.4,2.4,2,3.1,3.4c1.9,4.2,2.8,8.8,2.7,13.4
				C71,407.6,70.6,409.8,69.4,411.6"/>
		</g>
		<g class="st24">
			<path d="M69.4,411.6c-1.6,2.2-4.6,1.4-6,0c-1.4-1.4-1.9-3.4-2.4-5.2c-1.1-4.3-2.2-8.8-1.2-13.1c0.3-1.3,0.8-2.6,1.8-3.5
				c0.9-0.9,2.4-1.5,3.6-1.1c1.5,0.4,2.4,2,3.1,3.4c1.9,4.2,2.8,8.8,2.7,13.4C71,407.6,70.6,409.8,69.4,411.6"/>
		</g>
		<g>
			<path class="st10" d="M63.3,422.6c-2.5-1.4-5.5-1.6-8.3-1.2c-1.5,0.2-3.1,0.6-4.2,1.7c-1.1,1.1-1.3,3.1-0.2,4.1
				c0.7,0.6,1.7,0.7,2.6,0.7c2.2,0,4.7-0.3,6.4,1.1c1,0.8,1.6,2.1,2.8,2.5c1.2,0.4,2.5-0.3,3.2-1.3c0.6-1,0.7-2.4,0.4-3.6
				C66,426.6,65.8,424,63.3,422.6z"/>
		</g>
		<g>
			<path class="st10" d="M73.5,414.8c-1.6-2-1.9-5-1.1-7.4c0.8-2.5,2.6-4.6,4.6-6.2c2.3-2,5.1-3.5,8-4.4c1.1-0.4,2.4-0.7,3.5-0.5
				c1.2,0.1,2.4,0.8,2.9,1.9c0.8,1.6-0.1,3.5-1,5c-1.6,2.7-3.4,5.3-5.4,7.7c-1.6,2-3.4,3.9-5.8,4.7c-2.4,0.8-4.8,0.7-6-1"/>
		</g>
		<g>
			<g>
				<path class="st12" d="M68.6,444.9c0,0-0.1-0.4-0.1-1c-0.1-0.7-0.1-1.7-0.2-2.7c-0.1-1.2-0.2-2.5-0.5-4c-0.3-1.5-0.7-3.1-1.3-4.8
					c-0.6-1.6-1.4-3.1-2.3-4.4c-0.9-1.2-2-2.1-3-2.6c-1-0.5-1.9-0.8-2.6-0.9c-0.6-0.1-1-0.1-1-0.2c0,0,0.4,0,1,0
					c0.7,0.1,1.6,0.3,2.7,0.8c1.1,0.5,2.2,1.4,3.2,2.7c1,1.2,1.8,2.8,2.4,4.4c0.6,1.7,1.1,3.3,1.3,4.9c0.3,1.5,0.4,2.9,0.4,4.1
					c0.1,1.2,0.1,2.1,0.1,2.8C68.6,444.5,68.6,444.9,68.6,444.9z"/>
			</g>
		</g>
		<g>
			<g>
				<path class="st12" d="M68.5,442.8c0,0,0-0.2,0-0.5c0-0.4,0-0.8,0-1.3c0-1.2,0.1-2.8,0.1-4.9c0-4.1-0.2-9.8-0.7-16.1
					c-0.5-6.3-1.3-12-2-16c-0.2-1-0.3-1.9-0.5-2.7c-0.2-0.8-0.3-1.5-0.4-2.1c-0.1-0.5-0.2-1-0.3-1.3c-0.1-0.3-0.1-0.5-0.1-0.5
					c0,0,0.1,0.1,0.2,0.4c0.1,0.3,0.2,0.8,0.4,1.3c0.2,0.6,0.3,1.2,0.5,2.1c0.2,0.8,0.4,1.7,0.6,2.7c0.8,4.1,1.6,9.7,2.1,16
					c0.5,6.3,0.7,12,0.6,16.2c0,2.1-0.1,3.7-0.2,4.9c0,0.5-0.1,1-0.1,1.3C68.5,442.6,68.5,442.8,68.5,442.8z"/>
			</g>
		</g>
		<g>
			<g>
				<path class="st12" d="M68.7,431.7c0,0,0-0.5,0-1.4c0.1-0.9,0.2-2.2,0.5-3.8c0.3-1.6,0.7-3.4,1.4-5.5c0.6-2,1.4-4.2,2.5-6.4
					c2-4.5,4.7-8.1,7-10.3c0.5-0.6,1.1-1,1.6-1.4c0.2-0.2,0.5-0.4,0.7-0.6c0.2-0.1,0.4-0.3,0.6-0.4c0.8-0.5,1.2-0.7,1.2-0.7
					c0.1,0.1-1.7,1.1-3.9,3.3c-2.2,2.3-4.8,5.9-6.9,10.3c-1,2.2-1.9,4.4-2.5,6.4c-0.7,2-1.1,3.8-1.5,5.4c-0.3,1.6-0.5,2.8-0.7,3.7
					C68.8,431.3,68.8,431.7,68.7,431.7z"/>
			</g>
		</g>
	</g>
</g>
</svg>
